<svg width="1920" height="1080" viewBox="0 0 1920 1080" xmlns="http://www.w3.org/2000/svg"><path d="M1920,1080C1612,1096.1666666666667,309.1666666666667,1096.1666666666667,0,1080C-309.1666666666667,1063.8333333333333,42.66666666666667,994.1666666666666,65,983C87.33333333333333,971.8333333333334,110.83333333333333,1022.8333333333334,134,1013C157.16666666666666,1003.1666666666666,180.83333333333334,923.5,204,924C227.16666666666666,924.5,250.16666666666666,1002.6666666666666,273,1016C295.8333333333333,1029.3333333333333,318.1666666666667,1004,341,1004C363.8333333333333,1004,387.1666666666667,1030.1666666666667,410,1016C432.8333333333333,1001.8333333333334,455.3333333333333,909,478,919C500.6666666666667,929,523.1666666666666,1054.3333333333333,546,1076C568.8333333333334,1097.6666666666667,591.8333333333334,1049.5,615,1049C638.1666666666666,1048.5,662.3333333333334,1069.3333333333333,685,1073C707.6666666666666,1076.6666666666667,728.5,1075.6666666666667,751,1071C773.5,1066.3333333333333,796.8333333333334,1060.6666666666667,820,1045C843.1666666666666,1029.3333333333333,867.1666666666666,997.5,890,977C912.8333333333334,956.5,934,906.8333333333334,957,922C980,937.1666666666666,1005.3333333333334,1057.6666666666667,1028,1068C1050.6666666666667,1078.3333333333333,1070.5,1000.5,1093,984C1115.5,967.5,1139.6666666666667,962,1163,969C1186.3333333333333,976,1210,1017.5,1233,1026C1256,1034.5,1278,1027.8333333333333,1301,1020C1324,1012.1666666666666,1348.5,982.1666666666666,1371,979C1393.5,975.8333333333334,1413.6666666666667,997.6666666666666,1436,1001C1458.3333333333333,1004.3333333333334,1481.8333333333333,989.5,1505,999C1528.1666666666667,1008.5,1552,1061.1666666666667,1575,1058C1598,1054.8333333333333,1620.1666666666667,986.1666666666666,1643,980C1665.8333333333333,973.8333333333334,1689.1666666666667,1029.3333333333333,1712,1021C1734.8333333333333,1012.6666666666666,1757.3333333333333,936.3333333333334,1780,930C1802.6666666666667,923.6666666666666,1824.6666666666667,958,1848,983C1871.3333333333333,1008,2228,1063.8333333333333,1920,1080C1612,1096.1666666666667,309.1666666666667,1096.1666666666667,0,1080" fill="#df6688"/></svg>