<?xml version="1.0" standalone="no"?>
<svg xmlns:xlink="http://www.w3.org/1999/xlink" id="wave" style="transform:rotate(0deg); transition: 0.3s" viewBox="0 0 1440 490" version="1.1" xmlns="http://www.w3.org/2000/svg"><defs><linearGradient id="sw-gradient-0" x1="0" x2="0" y1="1" y2="0"><stop stop-color="rgba(65, 116, 76, 1)" offset="0%"/><stop stop-color="rgba(65, 116, 76, 1)" offset="100%"/></linearGradient></defs><path style="transform:translate(0, 0px); opacity:1" fill="url(#sw-gradient-0)" d="M0,196L26.7,236.8C53.3,278,107,359,160,351.2C213.3,343,267,245,320,196C373.3,147,427,147,480,122.5C533.3,98,587,49,640,40.8C693.3,33,747,65,800,73.5C853.3,82,907,65,960,81.7C1013.3,98,1067,147,1120,163.3C1173.3,180,1227,163,1280,163.3C1333.3,163,1387,180,1440,220.5C1493.3,261,1547,327,1600,359.3C1653.3,392,1707,392,1760,375.7C1813.3,359,1867,327,1920,334.8C1973.3,343,2027,392,2080,416.5C2133.3,441,2187,441,2240,375.7C2293.3,310,2347,180,2400,179.7C2453.3,180,2507,310,2560,310.3C2613.3,310,2667,180,2720,106.2C2773.3,33,2827,16,2880,8.2C2933.3,0,2987,0,3040,73.5C3093.3,147,3147,294,3200,343C3253.3,392,3307,343,3360,334.8C3413.3,327,3467,359,3520,367.5C3573.3,376,3627,359,3680,367.5C3733.3,376,3787,408,3813,424.7L3840,441L3840,490L3813.3,490C3786.7,490,3733,490,3680,490C3626.7,490,3573,490,3520,490C3466.7,490,3413,490,3360,490C3306.7,490,3253,490,3200,490C3146.7,490,3093,490,3040,490C2986.7,490,2933,490,2880,490C2826.7,490,2773,490,2720,490C2666.7,490,2613,490,2560,490C2506.7,490,2453,490,2400,490C2346.7,490,2293,490,2240,490C2186.7,490,2133,490,2080,490C2026.7,490,1973,490,1920,490C1866.7,490,1813,490,1760,490C1706.7,490,1653,490,1600,490C1546.7,490,1493,490,1440,490C1386.7,490,1333,490,1280,490C1226.7,490,1173,490,1120,490C1066.7,490,1013,490,960,490C906.7,490,853,490,800,490C746.7,490,693,490,640,490C586.7,490,533,490,480,490C426.7,490,373,490,320,490C266.7,490,213,490,160,490C106.7,490,53,490,27,490L0,490Z"/><defs><linearGradient id="sw-gradient-1" x1="0" x2="0" y1="1" y2="0"><stop stop-color="rgba(65, 116, 76, 1)" offset="0%"/><stop stop-color="rgba(65, 116, 76, 1)" offset="100%"/></linearGradient></defs><path style="transform:translate(0, 50px); opacity:0.9" fill="url(#sw-gradient-1)" d="M0,98L26.7,98C53.3,98,107,98,160,114.3C213.3,131,267,163,320,147C373.3,131,427,65,480,98C533.3,131,587,261,640,269.5C693.3,278,747,163,800,163.3C853.3,163,907,278,960,318.5C1013.3,359,1067,327,1120,285.8C1173.3,245,1227,196,1280,179.7C1333.3,163,1387,180,1440,155.2C1493.3,131,1547,65,1600,40.8C1653.3,16,1707,33,1760,40.8C1813.3,49,1867,49,1920,114.3C1973.3,180,2027,310,2080,334.8C2133.3,359,2187,278,2240,253.2C2293.3,229,2347,261,2400,253.2C2453.3,245,2507,196,2560,171.5C2613.3,147,2667,147,2720,179.7C2773.3,212,2827,278,2880,277.7C2933.3,278,2987,212,3040,220.5C3093.3,229,3147,310,3200,351.2C3253.3,392,3307,392,3360,334.8C3413.3,278,3467,163,3520,106.2C3573.3,49,3627,49,3680,81.7C3733.3,114,3787,180,3813,212.3L3840,245L3840,490L3813.3,490C3786.7,490,3733,490,3680,490C3626.7,490,3573,490,3520,490C3466.7,490,3413,490,3360,490C3306.7,490,3253,490,3200,490C3146.7,490,3093,490,3040,490C2986.7,490,2933,490,2880,490C2826.7,490,2773,490,2720,490C2666.7,490,2613,490,2560,490C2506.7,490,2453,490,2400,490C2346.7,490,2293,490,2240,490C2186.7,490,2133,490,2080,490C2026.7,490,1973,490,1920,490C1866.7,490,1813,490,1760,490C1706.7,490,1653,490,1600,490C1546.7,490,1493,490,1440,490C1386.7,490,1333,490,1280,490C1226.7,490,1173,490,1120,490C1066.7,490,1013,490,960,490C906.7,490,853,490,800,490C746.7,490,693,490,640,490C586.7,490,533,490,480,490C426.7,490,373,490,320,490C266.7,490,213,490,160,490C106.7,490,53,490,27,490L0,490Z"/></svg>