<svg id="visual" viewBox="0 0 900 600" width="900" height="600" xmlns="http://www.w3.org/2000/svg" xmlns:xlink="http://www.w3.org/1999/xlink" version="1.1"><path d="M0 511L4.8 519.8C9.7 528.7 19.3 546.3 29 550.3C38.7 554.3 48.3 544.7 58 543.8C67.7 543 77.3 551 87 547C96.7 543 106.3 527 116 522.7C125.7 518.3 135.3 525.7 145 531.8C154.7 538 164.3 543 174 545.7C183.7 548.3 193.3 548.7 203 550.5C212.7 552.3 222.3 555.7 232 554.8C241.7 554 251.3 549 261 543.7C270.7 538.3 280.3 532.7 290 533.3C299.7 534 309.3 541 319 547C328.7 553 338.3 558 348 555.2C357.7 552.3 367.3 541.7 377 541.3C386.7 541 396.3 551 406 554.8C415.7 558.7 425.3 556.3 435.2 555.8C445 555.3 455 556.7 464.8 553.5C474.7 550.3 484.3 542.7 494 541.2C503.7 539.7 513.3 544.3 523 542C532.7 539.7 542.3 530.3 552 529.8C561.7 529.3 571.3 537.7 581 536.3C590.7 535 600.3 524 610 518.5C619.7 513 629.3 513 639 513.3C648.7 513.7 658.3 514.3 668 513.8C677.7 513.3 687.3 511.7 697 515.2C706.7 518.7 716.3 527.3 726 536.7C735.7 546 745.3 556 755 552.7C764.7 549.3 774.3 532.7 784 529.2C793.7 525.7 803.3 535.3 813 539C822.7 542.7 832.3 540.3 842 539.7C851.7 539 861.3 540 871 535.8C880.7 531.7 890.3 522.3 895.2 517.7L900 513L900 601L895.2 601C890.3 601 880.7 601 871 601C861.3 601 851.7 601 842 601C832.3 601 822.7 601 813 601C803.3 601 793.7 601 784 601C774.3 601 764.7 601 755 601C745.3 601 735.7 601 726 601C716.3 601 706.7 601 697 601C687.3 601 677.7 601 668 601C658.3 601 648.7 601 639 601C629.3 601 619.7 601 610 601C600.3 601 590.7 601 581 601C571.3 601 561.7 601 552 601C542.3 601 532.7 601 523 601C513.3 601 503.7 601 494 601C484.3 601 474.7 601 464.8 601C455 601 445 601 435.2 601C425.3 601 415.7 601 406 601C396.3 601 386.7 601 377 601C367.3 601 357.7 601 348 601C338.3 601 328.7 601 319 601C309.3 601 299.7 601 290 601C280.3 601 270.7 601 261 601C251.3 601 241.7 601 232 601C222.3 601 212.7 601 203 601C193.3 601 183.7 601 174 601C164.3 601 154.7 601 145 601C135.3 601 125.7 601 116 601C106.3 601 96.7 601 87 601C77.3 601 67.7 601 58 601C48.3 601 38.7 601 29 601C19.3 601 9.7 601 4.8 601L0 601Z" fill="#0066FF" stroke-linecap="round" stroke-linejoin="miter"></path></svg>